# xmcd
#
# Track frame offsets: 
#        300
#        23771
#        45328
#        67234
#        85259
#        100996
#        116731
#        131532
#        150074
#        166653
#
# Disc length: 2488 seconds
#
# Revision: 5
# Processed by: cddbd v1.5.2PL0 Copyright (c) Steve Scherf et al.
# Submitted via: ExactAudioCopy v1.0b1
#
DISCID=7309b40a
DTITLE=Pat Travers - Blues Tracks
DYEAR=1992
DGENRE=Boogie Rock
TTITLE0=Memory Pain
TTITLE1=Calling Card Blues
TTITLE2=I Can't Quit You
TTITLE3=Statesboro Blues
TTITLE4=I've Got News for You
TTITLE5=I Ain't Superstitious
TTITLE6=Built for Comfort
TTITLE7=Mystery Train
TTITLE8=Just Got Paid
TTITLE9=Sitting on Top of the World
EXTD=YEAR: 1992
EXTT0=
EXTT1=
EXTT2=
EXTT3=
EXTT4=
EXTT5=
EXTT6=
EXTT7=
EXTT8=
EXTT9=
PLAYORDER=
